Coordinates
version=1
nRows=4
nColumns=107
inDegrees=yes

Units are S.I. units (second, meters, Newtons, ...)
If the header above contains a line with 'inDegrees', this indicates whether rotational values are in degrees (yes) or radians (no).

endheader
time	sternoclavicular_r2	sternoclavicular_r3	unrotscap_r3	unrotscap_r2	acromioclavicular_r2	acromioclavicular_r3	acromioclavicular_r1	unrothum_r1	unrothum_r3	unrothum_r2	elv_angle	shoulder_elv	shoulder1_r2	shoulder_rot	elbow_flexion	pro_sup	deviation	flexion	proximal_distal_r1	proximal_distal_r3	cmc_flexion	cmc_abduction	mp_flexion	ip_flexion	mcp2_flexion	mcp2_abduction	pm2_flexion	md2_flexion	mcp3_flexion	mcp3_abduction	pm3_flexion	md3_flexion	mcp4_flexion	mcp4_abduction	pm4_flexion	md4_flexion	mcp5_flexion	mcp5_abduction	pm5_flexion	md5_flexion	bicpt_tx	bicpt_ty	bicpt_tz	bicpt2_tx	bicpt2_ty	bicpt2_tz	ptpt_tx	ptpt_ty	ptpt_tz	FCUpt_tx	FCUpt_ty	FCUpt_tz	EDCpt_tx	EDCpt_ty	EDCpt_tz	APLpt_tx	APLpt_ty	APLpt_tz	FPLpt_tx	FPLpt_ty	FPLpt_tz	FPLpt2_tx	FPLpt2_ty	FPLpt2_tz	PEC1pt2_tx	PEC1pt2_ty	PEC1pt2_tz	PEC1pt3_tx	PEC1pt3_ty	PEC1pt3_tz	PEC2pt2_tx	PEC2pt2_ty	PEC2pt2_tz	PEC2pt3_tx	PEC2pt3_ty	PEC2pt3_tz	PEC3pt2_tx	PEC3pt2_ty	PEC3pt2_tz	PEC3pt3_tx	PEC3pt3_ty	PEC3pt3_tz	DELT2pt2a_tx	DELT2pt2a_ty	DELT2pt2a_tz	DELT2pt2_tx	DELT2pt2_ty	DELT2pt2_tz	LAT1pt2_tx	LAT1pt2_ty	LAT1pt2_tz	LAT1pt3_tx	LAT1pt3_ty	LAT1pt3_tz	LAT2pt2_tx	LAT2pt2_ty	LAT2pt2_tz	LAT2pt3_tx	LAT2pt3_ty	LAT2pt3_tz	LAT3pt2_tx	LAT3pt2_ty	LAT3pt2_tz	LAT3pt3_tx	LAT3pt3_ty	LAT3pt3_tz
      0.53333333	     -0.32177640	      0.13628930	     -0.13628930	      0.32177640	     -0.06515318	      0.52654505	      0.23667838	     -0.23667838	     -0.52654505	      0.06515318	     99.59277819	     76.18342386	     -1.73822189	    -25.35084912	     29.45928745	     43.88321859	      0.13110631	     -0.13380131	      0.16386057	     -0.06690065	     35.74799075	     -2.19968849	    -17.51815671	      5.50473896	     -5.92441513	      4.72050599	     20.62114800	    -22.13497496	     -2.28631393	     -3.92511596	      7.28032796	     10.22755747	     -6.94344610	     -6.77753957	     -7.32175886	     20.39162108	    -21.93790647	    -13.18010773	     -2.92656276	      4.96996956	      0.00087442	     -0.03097648	     -0.00484386	      0.01656441	     -0.01820276	     -0.00704492	      0.00430753	     -0.06699664	     -0.00358503	      0.00817352	     -0.18341214	     -0.00040831	     -0.00526597	      0.00154053	      0.00011446	      0.00012191	      0.00004876	      0.00024381	      0.00015604	      0.00046812	      0.00026332	     -0.00001284	     -0.00018375	     -0.00022050	      0.00249713	      0.00876110	      0.00609468	     -0.00816856	      0.01972306	     -0.01870728	      0.00249713	      0.00876110	      0.00609468	      0.00055021	      0.01828404	     -0.00960758	      0.00394856	      0.00487194	      0.01596916	      0.00000000	      0.00776196	      0.00000000	     -0.00715278	     -0.03305517	     -0.00640000	      0.01667252	     -0.00060169	     -0.00537253	     -0.00088881	      0.01489810	     -0.00609468	      0.00245480	      0.02150067	     -0.01777615	     -0.00596771	      0.01290887	     -0.00545982	     -0.01244330	      0.02725676	     -0.03051572	     -0.02336294	      0.01443254	     -0.00732208	     -0.01549064	      0.03148918	     -0.03813407
      0.56666667	     -0.32333276	      0.13694850	     -0.13694850	      0.32333276	     -0.06546831	      0.52909183	      0.23782313	     -0.23782313	     -0.52909183	      0.06546831	     99.23522828	     76.55190479	     -1.73198147	    -23.50879352	     29.36102073	     41.98234547	      0.13728730	     -0.13152542	      0.17089122	     -0.06576271	     35.72771538	     -2.17570314	    -19.29668435	      8.14350643	     -6.16050728	      4.51536433	     20.59121722	    -21.12653408	     -2.61704573	     -4.03702366	      7.83396060	     10.29286432	     -7.33035875	     -6.96636707	     -6.77012689	     18.82553447	    -21.83929642	    -13.21154302	     -4.08577844	      5.01242648	      0.00087117	     -0.03096522	     -0.00484205	      0.01657362	     -0.01817607	     -0.00725566	      0.00444798	     -0.06690582	     -0.00343190	      0.00798042	     -0.18345327	     -0.00039901	     -0.00503787	      0.00146149	      0.00013112	      0.00012008	      0.00004803	      0.00024016	      0.00015370	      0.00046111	      0.00025938	     -0.00001284	     -0.00018404	     -0.00022085	      0.00250920	      0.00880348	      0.00612416	     -0.00820807	      0.01981845	     -0.01879776	      0.00250920	      0.00880348	      0.00612416	      0.00055288	      0.01837247	     -0.00965405	      0.00396248	      0.00489550	      0.01600309	      0.00000000	      0.00783776	      0.00000000	     -0.00718738	     -0.03321505	     -0.00646292	      0.01571871	     -0.00054207	     -0.00461083	     -0.00089311	      0.01497016	     -0.00612416	      0.00246667	      0.02160467	     -0.01786213	     -0.00599657	      0.01297131	     -0.00548622	     -0.01250349	      0.02738859	     -0.03066332	     -0.02347594	      0.01450235	     -0.00735749	     -0.01556557	      0.03164148	     -0.03831851
      0.60000000	     -0.32141050	      0.13613432	     -0.13613432	      0.32141050	     -0.06507909	      0.52594631	      0.23640924	     -0.23640924	     -0.52594631	      0.06507909	     99.65456192	     76.09679379	     -1.73930022	    -25.84299896	     29.57572070	     44.53874899	      0.13083578	     -0.11857693	      0.16355138	     -0.05928847	     35.74110731	     -2.47741474	    -18.63555207	      5.61618032	     -6.42219774	      4.50731165	     20.46893384	    -20.98541006	     -2.52471631	     -4.09847770	      7.54325910	     10.39282115	     -7.02742946	     -6.99861036	     -7.48684853	     19.81673971	    -21.67295858	    -13.25475002	     -3.72859222	      4.99863052	      0.00087827	     -0.03098983	     -0.00484601	      0.01655932	     -0.01823439	     -0.00697107	      0.00425909	     -0.06702796	     -0.00363784	      0.00824037	     -0.18339772	     -0.00041088	     -0.00534464	      0.00156805	      0.00010825	      0.00010955	      0.00004382	      0.00021909	      0.00014022	      0.00042066	      0.00023662	     -0.00001284	     -0.00018385	     -0.00022062	      0.00249429	      0.00875114	      0.00608775	     -0.00815927	      0.01970063	     -0.01868601	      0.00249429	      0.00875114	      0.00608775	      0.00054959	      0.01826325	     -0.00959666	      0.00394528	      0.00486640	      0.01596114	      0.00000000	      0.00774420	      0.00000000	     -0.00714465	     -0.03301758	     -0.00638525	      0.01691966	     -0.00061781	     -0.00558409	     -0.00088780	      0.01488116	     -0.00608775	      0.00245201	      0.02147622	     -0.01775593	     -0.00596092	      0.01289419	     -0.00545361	     -0.01242915	      0.02722576	     -0.03048102	     -0.02333637	      0.01441613	     -0.00731375	     -0.01547303	      0.03145337	     -0.03809071
      0.63333333	     -0.32260541	      0.13664042	     -0.13664042	      0.32260541	     -0.06532103	      0.52790161	      0.23728814	     -0.23728814	     -0.52790161	      0.06532103	     99.38570449	     76.37969810	     -1.73460777	    -24.28363300	     29.41683605	     43.00691956	      0.14366581	     -0.12120832	      0.17808088	     -0.06060416	     35.38254350	     -2.20298611	    -16.97544030	      2.94265489	     -5.84280540	      4.73662116	     20.97928089	    -22.31715724	     -1.71934920	     -3.99114297	      7.00026425	     10.46606410	     -6.66156133	     -6.87523039	     -7.43083065	     21.77304954	    -21.52063424	    -13.25615383	     -2.77915593	      4.95552456	      0.00087302	     -0.03097162	     -0.00484308	      0.01656973	     -0.01819123	     -0.00714273	      0.00437227	     -0.06695477	     -0.00351444	      0.00808436	     -0.18343123	     -0.00040438	     -0.00516082	      0.00150395	      0.00012239	      0.00011171	      0.00004468	      0.00022342	      0.00014299	      0.00042897	      0.00024129	     -0.00001281	     -0.00018910	     -0.00022692	      0.00250356	      0.00878367	      0.00611038	     -0.00818961	      0.01977387	     -0.01875548	      0.00250356	      0.00878367	      0.00611038	      0.00055163	      0.01833114	     -0.00963234	      0.00395598	      0.00488449	      0.01598727	      0.00000000	      0.00780229	      0.00000000	     -0.00717121	     -0.03314033	     -0.00643347	      0.01612554	     -0.00056700	     -0.00492525	     -0.00089110	      0.01493649	     -0.00611038	      0.00246113	      0.02155607	     -0.01782194	     -0.00598308	      0.01294213	     -0.00547388	     -0.01247536	      0.02732698	     -0.03059434	     -0.02342313	      0.01446972	     -0.00734094	     -0.01553055	      0.03157030	     -0.03823231
